<svg xmlns="http://www.w3.org/2000/svg" width="75.813" height="76.14"><g data-name="Сгруппировать 83"><path data-name="Прямоугольник 391" fill="#24aeef" d="M0 12.546h75.813v52.993H0z"/><g data-name="Сгруппировать 71"><g data-name="Сгруппировать 69"><path data-name="Контур 72" d="M32.686 9.26H5.241v51.012h27.445a5.369 5.369 0 015.37 5.369V14.629a5.368 5.368 0 00-5.37-5.369z" fill="#fff"/><path data-name="Контур 73" d="M39.537 65.642h-2.953a3.9 3.9 0 00-3.893-3.893H3.765V7.784h28.921a6.854 6.854 0 016.851 6.842zM6.722 58.797H32.69a6.812 6.812 0 013.893 1.217V14.626a3.9 3.9 0 00-3.893-3.893H6.718z" fill="#282d33"/></g><g data-name="Сгруппировать 70"><path data-name="Контур 74" d="M43.128 9.26h27.446v51.012H43.128a5.371 5.371 0 00-5.371 5.369V14.629a5.37 5.37 0 015.371-5.369z" fill="#fff"/><path data-name="Контур 75" d="M39.234 65.642h-2.953V14.626a6.854 6.854 0 016.847-6.846H72.05v53.965H43.128a3.9 3.9 0 00-3.894 3.897zm3.894-54.905a3.9 3.9 0 00-3.894 3.893v45.384a6.807 6.807 0 013.894-1.217h25.969v-48.06z" fill="#282d33"/></g></g><g data-name="Сгруппировать 76"><g data-name="Сгруппировать 72"><path data-name="Прямоугольник 392" fill="#282d33" d="M10.701 14.862h12.773v2.953H10.701z"/></g><g data-name="Сгруппировать 73"><path data-name="Прямоугольник 393" fill="#282d33" d="M10.701 23.162h21.516v2.953H10.701z"/></g><g data-name="Сгруппировать 74"><path data-name="Прямоугольник 394" fill="#282d33" d="M10.701 29.254h21.516v2.953H10.701z"/></g><g data-name="Сгруппировать 75"><path data-name="Прямоугольник 395" fill="#282d33" d="M10.701 35.347h15.364V38.3H10.701z"/></g></g><g data-name="Сгруппировать 82"><g data-name="Сгруппировать 77"><path data-name="Контур 76" d="M54.41 62.027a11.32 11.32 0 00-3.4.515l3.4 9.3 3.4-9.3a11.284 11.284 0 00-3.4-.515z" fill="#fff"/><path data-name="Контур 77" d="M54.411 76.141l-5.322-14.54 1.473-.466a13.017 13.017 0 017.692 0l1.471.465zm-1.443-12.535l1.44 3.938 1.44-3.938a10.2 10.2 0 00-2.884 0z" fill="#282d33"/></g><path data-name="Контур 78" d="M59.595 61.649v-19.36H49.218v19.356" fill="#b7bec0"/><g data-name="Сгруппировать 81"><g data-name="Сгруппировать 78"><path data-name="Контур 79" d="M50.62.623v3.763h7.524V.623c0-.347-.368-.622-.827-.623H51.45c-.458.001-.83.278-.83.623z" fill="#30c0d8"/></g><g data-name="Сгруппировать 80"><g data-name="Сгруппировать 79"><path data-name="Прямоугольник 396" fill="#fff" d="M50.596 4.225h7.624v5.233h-7.624z"/><path data-name="Контур 80" d="M59.696 10.934H49.119V2.747h10.578zm-7.624-2.953h4.672v-2.28h-4.672z" fill="#282d33"/></g></g></g><path data-name="Контур 81" d="M59.595 50.719v-39.81H49.218v40.427" fill="#b7bec0"/></g></g></svg>