<svg xmlns="http://www.w3.org/2000/svg" width="67.19" height="76.14"><g data-name="Сгруппировать 94"><g data-name="Сгруппировать 84"><path data-name="Контур 82" d="M32.033 76.14h-1.924a13.052 13.052 0 01-13.037-13.038V49.637h2.992V63.1a10.057 10.057 0 0010.045 10.046h1.924A10.057 10.057 0 0042.078 63.1V26.555h2.992V63.1a13.052 13.052 0 01-13.037 13.04z" fill="#282d33"/></g><g data-name="Сгруппировать 85"><path data-name="Контур 83" d="M59.578 46.928h-2.992V25.52a5.169 5.169 0 00-5.164-5.162h-1.109a5.169 5.169 0 00-5.163 5.162v21.084h-2.992V25.52a8.164 8.164 0 018.155-8.155h1.109a8.164 8.164 0 018.156 8.155z" fill="#282d33"/></g><g data-name="Сгруппировать 86"><path data-name="Контур 84" d="M65.693 54.205a7.454 7.454 0 11-7.453-7.453 7.454 7.454 0 017.453 7.453z" fill="#fff"/><path data-name="Контур 85" d="M58.245 63.156a8.95 8.95 0 118.949-8.951 8.96 8.96 0 01-8.949 8.951zm0-14.907a5.958 5.958 0 105.957 5.957 5.965 5.965 0 00-5.957-5.958z" fill="#282d33"/></g><path data-name="Контур 86" d="M61.846 54.201a3.607 3.607 0 11-3.606-3.606 3.606 3.606 0 013.606 3.606z" fill="#82bda9"/><g data-name="Сгруппировать 93"><g data-name="Сгруппировать 87"><path data-name="Контур 87" d="M2.992 24.971H0V9.332A8.968 8.968 0 018.957.374v2.992a5.973 5.973 0 00-5.965 5.966z" fill="#82bda9"/></g><g data-name="Сгруппировать 90"><g data-name="Сгруппировать 88"><path data-name="Контур 88" d="M37.72 25.09h-2.992V9.451a5.973 5.973 0 00-5.965-5.965V.494a8.967 8.967 0 018.957 8.957z" fill="#82bda9"/></g><g data-name="Сгруппировать 89"><path data-name="Контур 89" d="M30.972 4.313a5.562 5.562 0 00-2.209-.453V.12a9.272 9.272 0 013.686.757z" fill="#282d33"/></g></g><g data-name="Сгруппировать 91"><path data-name="Контур 90" d="M22.656 51.775h-7.7A14.977 14.977 0 01-.005 36.815V24.952h2.992v11.863a11.982 11.982 0 0011.969 11.968h7.7a11.982 11.982 0 0011.969-11.968V24.952h2.992v11.863a14.977 14.977 0 01-14.961 14.96z" fill="#282d33"/></g><g data-name="Сгруппировать 92"><path data-name="Контур 91" d="M6.674 4.227L5.143.814A9.256 9.256 0 018.957 0v3.74a5.528 5.528 0 00-2.283.487z" fill="#282d33"/></g></g></g></svg>