<svg xmlns="http://www.w3.org/2000/svg" width="106.796" height="86.705"><g data-name="Сгруппировать 38"><g data-name="Сгруппировать 26"><path data-name="Контур 49" d="M9.685 22.895h-4V4.824A4.689 4.689 0 0110.213 0H94.43a4.687 4.687 0 014.525 4.824v11.36h-4V4.824c0-.471-.277-.824-.525-.824H10.213c-.249 0-.528.353-.528.824z" fill="#282d33"/></g><g data-name="Сгруппировать 29"><g data-name="Сгруппировать 28"><g data-name="Сгруппировать 27"><path data-name="Прямоугольник 332" fill="#ffba31" d="M15.297 10.687h74.049v23.352H15.297z"/></g></g><g data-name="Сгруппировать 40"><g data-name="Сгруппировать 27"><path data-name="Прямоугольник 332" fill="#ffba31" d="M15.297 10.687h74.049v23.352H15.297z"/></g></g></g><g data-name="Сгруппировать 30"><path data-name="Контур 50" d="M100.404 44.371l2.237-18.823a2.688 2.688 0 00-2.526-2.825H57.406l-3.637 6.6H4.527A2.69 2.69 0 002 32.148l5.055 40.035a2.691 2.691 0 002.527 2.826h49.72" fill="#fff"/><path data-name="Контур 51" d="M59.302 77.006H9.582a4.681 4.681 0 01-4.526-4.685L0 32.145a4.689 4.689 0 014.527-4.825h48.061l3.636-6.6h43.891a4.688 4.688 0 014.526 4.825l-.014.235-2.237 18.825-3.972-.472 2.219-18.678c-.032-.427-.289-.735-.522-.735H58.588l-3.637 6.6H4.527c-.226 0-.488.312-.523.73l5.051 40.13c0 .465.283.826.527.826h49.72z" fill="#282d33"/></g><g data-name="Сгруппировать 31"><path data-name="Контур 52" d="M30.655 43.32h-5.284v-5.284H18.46v5.284h-5.282v6.909h5.282v5.285h6.911v-5.285h5.284z" fill="#24aeef"/></g><g data-name="Сгруппировать 32"><path data-name="Линия 50" fill="#fff" d="M35.539 45.371h32.667"/><path data-name="Прямоугольник 333" fill="#282d33" d="M35.539 43.371h32.667v4H35.539z"/></g><g data-name="Сгруппировать 33"><path data-name="Линия 51" fill="#fff" d="M35.539 53.371h20.865"/><path data-name="Прямоугольник 334" fill="#282d33" d="M35.539 51.371h20.865v4H35.539z"/></g><g data-name="Сгруппировать 37"><path data-name="Контур 53" d="M106.796 86.705V70.329c0-3.178-2.316-6.855-5.262-7.824a50.687 50.687 0 00-31.087 0c-2.942.968-5.258 4.653-5.261 7.824v16.376z" fill="#24aeef"/><g data-name="Сгруппировать 36"><g data-name="Сгруппировать 34"><path data-name="Линия 52" fill="#34ca9d" d="M98.101 86.318V74.596"/><path data-name="Прямоугольник 335" fill="#282d33" d="M96.101 74.596h4v11.722h-4z"/></g><g data-name="Сгруппировать 35"><path data-name="Линия 53" fill="#34ca9d" d="M73.883 74.596v11.722"/><path data-name="Прямоугольник 336" fill="#282d33" d="M71.883 74.596h4v11.722h-4z"/></g></g><path data-name="Контур 54" d="M97.371 50.817a11.38 11.38 0 11-11.378-11.382 11.38 11.38 0 0111.378 11.382z" fill="#24aeef"/></g></g></svg>