<svg xmlns="http://www.w3.org/2000/svg" width="124.549" height="116.961"><g data-name="Сгруппировать 53"><path data-name="Прямоугольник 347" fill="#f5b32f" d="M19 61.467h34v24H19z"/><g data-name="Сгруппировать 47"><g data-name="Сгруппировать 42"><path data-name="Контур 55" d="M13.029 116.965v-17.5H0V51.33h47.434v3.32H3.32v41.495h13.029v13.331l14.737-13.331h36.85v-27.89h3.32v31.21H32.365z" fill="#282d33"/></g><g data-name="Сгруппировать 46"><g data-name="Сгруппировать 43"><path data-name="Прямоугольник 342" fill="#282d33" d="M16.125 65.045h36.57v3.32h-36.57z"/></g><g data-name="Сгруппировать 44"><path data-name="Прямоугольник 343" fill="#282d33" d="M16.125 73.678h36.57v3.32h-36.57z"/></g><g data-name="Сгруппировать 45"><path data-name="Прямоугольник 344" fill="#282d33" d="M16.125 82.316h36.57v3.32h-36.57z"/></g></g></g><g data-name="Сгруппировать 52"><g data-name="Сгруппировать 42"><path data-name="Контур 55" d="M111.52 80.443v-17.5h13.03V14.808H77.116v3.32h44.114v41.495H108.2v13.331L93.463 59.623h-36.85v-27.89h-3.32v31.21h38.891z" fill="#282d33"/></g><g data-name="Сгруппировать 46"><g data-name="Сгруппировать 43"><path data-name="Прямоугольник 342" fill="#282d33" d="M71.853 28.523h36.57v3.32h-36.57z"/></g><g data-name="Сгруппировать 44"><path data-name="Прямоугольник 343" fill="#282d33" d="M71.853 37.156h36.57v3.32h-36.57z"/></g><g data-name="Сгруппировать 45"><path data-name="Прямоугольник 344" fill="#282d33" d="M71.853 45.794h36.57v3.32h-36.57z"/></g></g></g><g data-name="Сгруппировать 48" fill="#24aeef"><path data-name="Прямоугольник 345" d="M55.646 0h8.51v26.661h-8.51z"/><path data-name="Прямоугольник 346" d="M46.57 9.075h26.661v8.511H46.57z"/></g></g></svg>