<svg xmlns="http://www.w3.org/2000/svg" width="56.073" height="71.09"><g fill="none"><path data-name="Линия 47" stroke="#413c3e" stroke-linecap="round" stroke-width="4" d="M22.84 27.593h13.79"/><path data-name="Линия 48" stroke="#413c3e" stroke-linecap="round" stroke-width="4" d="M22.84 39.545h9.193"/><path data-name="Линия 49" stroke="#413c3e" stroke-linecap="round" stroke-width="4" d="M22.84 51.496h4.597"/><path data-name="Контур 32" d="M35.074 69.09h-30.2a2.876 2.876 0 01-2.875-2.876V13.008a2.876 2.876 0 012.875-2.876h5.756" stroke="#413c3e" stroke-miterlimit="10" stroke-width="4"/><path data-name="Контур 123" d="M21 69.09h30.2a2.876 2.876 0 002.875-2.876V13.008a2.876 2.876 0 00-2.875-2.876h-5.752" stroke="#413c3e" stroke-miterlimit="10" stroke-width="4"/><path data-name="Контур 34" d="M30.759 63.337H7.751V18.07h2.876" stroke="#413c3e" stroke-linecap="round" stroke-miterlimit="10" stroke-width="4"/><path data-name="Контур 124" d="M25.751 63.337h23.008V18.07h-2.876" stroke="#413c3e" stroke-linecap="round" stroke-miterlimit="10" stroke-width="4"/><path data-name="Контур 36" d="M36.844 7.12h-3.841a5.12 5.12 0 10-10.24 0h-3.84a3.84 3.84 0 00-3.84 3.84v3.84h25.6v-3.84a3.84 3.84 0 00-3.839-3.84z" stroke="#413c3e" stroke-miterlimit="10" stroke-width="4"/><path data-name="Контур 37" d="M13.622 27.973l1.923 1.923 3.845-4.807" stroke="#ec567f" stroke-linecap="round" stroke-miterlimit="10" stroke-width="3"/><path data-name="Контур 47" d="M13.622 39.924l1.923 1.923 3.845-4.807" stroke="#ec567f" stroke-linecap="round" stroke-miterlimit="10" stroke-width="3"/><path data-name="Контур 48" d="M13.622 51.876l1.923 1.923 3.845-4.807" stroke="#ec567f" stroke-linecap="round" stroke-miterlimit="10" stroke-width="3"/></g></svg>