<svg xmlns="http://www.w3.org/2000/svg" width="138.516" height="149.951"><g transform="translate(-534.87 -90.253)"><path data-name="Линия 47" fill="none" stroke="#a1dbea" stroke-linecap="round" stroke-width="4" d="M582.206 147.93h30"/><path data-name="Линия 48" fill="none" stroke="#a1dbea" stroke-linecap="round" stroke-width="4" d="M582.206 173.93h20"/><path data-name="Линия 49" fill="none" stroke="#a1dbea" stroke-linecap="round" stroke-width="4" d="M582.206 199.93h10"/><path data-name="Контур 32" d="M608.82 238.203h-65.694a6.256 6.256 0 01-6.256-6.252V116.2a6.256 6.256 0 016.256-6.257h12.514" fill="none" stroke="#413c3e" stroke-miterlimit="10" stroke-width="4"/><path data-name="Контур 33" d="M630.718 109.943h12.512a6.257 6.257 0 016.257 6.257V160" fill="none" stroke="#413c3e" stroke-miterlimit="10" stroke-width="4"/><path data-name="Контур 34" d="M599.435 225.69h-50.053v-98.477h6.256" fill="none" stroke="#a1dbea" stroke-linecap="round" stroke-miterlimit="10" stroke-width="4"/><path data-name="Контур 35" d="M630.718 127.213h6.257v37.542" fill="none" stroke="#a1dbea" stroke-linecap="round" stroke-miterlimit="10" stroke-width="4"/><path data-name="Контур 36" d="M612.672 103.392h-8.355a11.139 11.139 0 10-22.277 0h-8.354a8.354 8.354 0 00-8.354 8.354v8.354h55.699v-8.355a8.353 8.353 0 00-8.359-8.353z" fill="none" stroke="#413c3e" stroke-miterlimit="10" stroke-width="4"/><circle data-name="Эллипс 10" cx="34.411" cy="34.411" r="34.411" transform="translate(602.563 169.381)" fill="#fff" stroke="#ec567f" stroke-miterlimit="10" stroke-width="4"/><path data-name="Контур 37" d="M562.153 148.756l4.183 4.183 8.365-10.457" fill="none" stroke="#a1dbea" stroke-linecap="round" stroke-miterlimit="10" stroke-width="4"/><path data-name="Контур 47" d="M562.153 174.756l4.183 4.183 8.365-10.457" fill="none" stroke="#a1dbea" stroke-linecap="round" stroke-miterlimit="10" stroke-width="4"/><path data-name="Контур 48" d="M562.153 200.756l4.183 4.183 8.365-10.457" fill="none" stroke="#a1dbea" stroke-linecap="round" stroke-miterlimit="10" stroke-width="4"/><path data-name="Контур 40" d="M643.231 197.536v-12.514h-12.513v12.514h-12.513v12.513h12.513v12.513h12.513v-12.514h12.513v-12.512z" fill="none" stroke="#ec567f" stroke-miterlimit="10" stroke-width="5"/></g></svg>