<svg width="76" height="12" fill="none" xmlns="http://www.w3.org/2000/svg"><path d="M6 0l1.347 4.146h4.36L8.18 6.708l1.347 4.146L6 8.292l-3.527 2.562L3.82 6.708.294 4.146h4.359L6 0zm32 0l1.347 4.146h4.36L40.18 6.708l1.347 4.146L38 8.292l-3.527 2.562 1.347-4.146-3.526-2.562h4.359L38 0zM22 0l1.347 4.146h4.36L24.18 6.708l1.347 4.146L22 8.292l-3.527 2.562 1.347-4.146-3.526-2.562h4.359L22 0zm32 0l1.347 4.146h4.36L56.18 6.708l1.347 4.146L54 8.292l-3.527 2.562 1.347-4.146-3.526-2.562h4.359L54 0z" fill="#46854D"/><path d="M70 0l1.347 4.146h4.36L72.18 6.708l1.347 4.146L70 8.292l-3.527 2.562 1.347-4.146-3.526-2.562h4.359L70 0z" fill="#9D9D9D"/></svg>