<svg width="1034" height="93" fill="none" xmlns="http://www.w3.org/2000/svg"><g clip-path="url(#clip0)"><path fill-rule="evenodd" clip-rule="evenodd" d="M1034 0H0v39.007c-9.434.265-17 7.995-17 17.493 0 9.498 7.566 17.228 17 17.493V93h1034V56.993c.17.005.33.007.5.007 9.67 0 17.5-7.835 17.5-17.5s-7.83-17.5-17.5-17.5c-.17 0-.33.002-.5.007V0zm0 22.007c-9.43.265-17 7.995-17 17.493 0 9.498 7.57 17.228 17 17.493V22.007zM0 73.993c.166.005.333.007.5.007C10.165 74 18 66.165 18 56.5S10.165 39 .5 39c-.167 0-.334.002-.5.007v34.986z" fill="#29556C"/></g><defs><clipPath id="clip0"><path fill="#fff" d="M0 0h1034v93H0z"/></clipPath></defs></svg>