<svg width="16" height="10" fill="none" xmlns="http://www.w3.org/2000/svg"><path d="M15.498 4.994h0a14.54 14.54 0 00-2.287-2.33C11.834 1.543 10.006.5 8 .5 5.993.5 4.165 1.543 2.789 2.663a14.502 14.502 0 00-2.287 2.33l-.4-.298m15.396.299L.5 5c0-.002 0-.004.003-.007l-.401-.298m15.396.299L15.5 5c0 .001 0 .003-.003.007m0-.013v.013M.102 4.695C.244 4.503 3.65 0 8 0s7.755 4.503 7.898 4.695L8 10C3.65 10 .244 5.497.102 5.305a.51.51 0 010-.61zm15.395.312a14.56 14.56 0 01-2.286 2.33C11.834 8.457 10.006 9.5 8 9.5c-2.007 0-3.835-1.043-5.211-2.163a14.498 14.498 0 01-2.286-2.33h14.994zM.817 4.678L.546 5l.27.321a15.2 15.2 0 002.595 2.433C4.648 8.65 6.247 9.466 8 9.466c1.756 0 3.355-.814 4.59-1.712a15.125 15.125 0 002.594-2.432l.27-.322-.27-.321a15.188 15.188 0 00-2.597-2.433C11.351 1.35 9.753.534 8 .534c-1.757 0-3.355.814-4.59 1.712A15.127 15.127 0 00.815 4.678zM9.604 5c0 .855-.71 1.564-1.605 1.564-.896 0-1.605-.71-1.605-1.564 0-.855.71-1.564 1.605-1.564.896 0 1.605.71 1.605 1.564z" stroke="#000"/></svg>