<svg width="271" height="272" fill="none" xmlns="http://www.w3.org/2000/svg"><g clip-path="url(#clip0)"><path fill-rule="evenodd" clip-rule="evenodd" d="M271 0H0v65.019A6.5 6.5 0 100 77.98v124.04a6.5 6.5 0 100 12.962V272h271v-57.019a6.5 6.5 0 000-12.962V77.981a6.5 6.5 0 000-12.962V0zm0 65.019a6.5 6.5 0 100 12.962V65.02zm0 137a6.5 6.5 0 100 12.962v-12.962zM0 214.981a6.5 6.5 0 000-12.962v12.962zm0-137A6.5 6.5 0 000 65.02v12.96z" fill="#29556C"/></g><defs><clipPath id="clip0"><path fill="#fff" d="M0 0h271v272H0z"/></clipPath></defs></svg>