<svg width="14" height="13" viewBox="0 0 14 13" fill="none" xmlns="http://www.w3.org/2000/svg">
<path d="M1 1H3.18182L4.64364 8.0138C4.69352 8.25496 4.83013 8.47159 5.02957 8.62577C5.22901 8.77995 5.47856 8.86185 5.73455 8.85714H11.0364C11.2923 8.86185 11.5419 8.77995 11.7413 8.62577C11.9408 8.47159 12.0774 8.25496 12.1273 8.0138L13 3.61905H3.72727M5.90909 11.4762C5.90909 11.7655 5.66488 12 5.36363 12C5.06239 12 4.81818 11.7655 4.81818 11.4762C4.81818 11.1869 5.06239 10.9524 5.36363 10.9524C5.66488 10.9524 5.90909 11.1869 5.90909 11.4762ZM11.9091 11.4762C11.9091 11.7655 11.6649 12 11.3636 12C11.0624 12 10.8182 11.7655 10.8182 11.4762C10.8182 11.1869 11.0624 10.9524 11.3636 10.9524C11.6649 10.9524 11.9091 11.1869 11.9091 11.4762Z" stroke="white" stroke-linecap="round" stroke-linejoin="round"/>
</svg>
