<svg width="76" height="12" viewBox="0 0 76 12" fill="none" xmlns="http://www.w3.org/2000/svg">
<path d="M6 0L7.34708 4.1459H11.7063L8.17963 6.7082L9.52671 10.8541L6 8.2918L2.47329 10.8541L3.82037 6.7082L0.293661 4.1459H4.65292L6 0Z" fill="#46854D"/>
<path d="M38 0L39.3471 4.1459H43.7063L40.1796 6.7082L41.5267 10.8541L38 8.2918L34.4733 10.8541L35.8204 6.7082L32.2937 4.1459H36.6529L38 0Z" fill="#9D9D9D"/>
<path d="M22 0L23.3471 4.1459H27.7063L24.1796 6.7082L25.5267 10.8541L22 8.2918L18.4733 10.8541L19.8204 6.7082L16.2937 4.1459H20.6529L22 0Z" fill="#46854D"/>
<path d="M54 0L55.3471 4.1459H59.7063L56.1796 6.7082L57.5267 10.8541L54 8.2918L50.4733 10.8541L51.8204 6.7082L48.2937 4.1459H52.6529L54 0Z" fill="#9D9D9D"/>
<path d="M70 0L71.3471 4.1459H75.7063L72.1796 6.7082L73.5267 10.8541L70 8.2918L66.4733 10.8541L67.8204 6.7082L64.2937 4.1459H68.6529L70 0Z" fill="#9D9D9D"/>
</svg>
